<svg width="1333" height="30" viewBox="0 0 1333 30" fill="none" xmlns="http://www.w3.org/2000/svg">
<path d="M22.308 16.808C22.5573 16.808 22.682 17.1453 22.682 17.82C22.682 18.1867 22.528 18.634 22.22 19.162C21.912 19.6753 21.5087 20.152 21.01 20.592C20.526 21.0173 19.9833 21.3693 19.382 21.648C18.7807 21.9267 18.1427 22.066 17.468 22.066C16.808 22.066 16.2873 21.8533 15.906 21.428C15.5393 20.988 15.356 20.504 15.356 19.976C15.356 19.4333 15.444 18.8247 15.62 18.15C15.796 17.4753 15.9867 16.7713 16.192 16.038C16.7493 14.0873 17.0353 12.716 17.05 11.924C17.05 11.5867 17.006 11.33 16.918 11.154C16.83 10.9633 16.6613 10.868 16.412 10.868C15.972 10.868 15.5027 11.132 15.004 11.66C14.5053 12.188 14.036 12.8627 13.596 13.684C12.584 15.5613 12.0487 17.3947 11.99 19.184C12.0193 19.3893 12.0487 19.5947 12.078 19.8C12.1073 20.0053 12.122 20.2253 12.122 20.46C12.122 20.9293 11.8873 21.362 11.418 21.758C10.9633 22.1393 10.45 22.33 9.878 22.33C9.54067 22.33 9.29133 22.1687 9.13 21.846C8.96867 21.5087 8.888 21.098 8.888 20.614C8.888 20.13 8.998 19.47 9.218 18.634C9.438 17.798 9.68 16.9107 9.944 15.972C10.648 13.4933 11.0073 11.6453 11.022 10.428C11.022 9.812 10.9413 9.328 10.78 8.976C10.6333 8.624 10.34 8.448 9.9 8.448C9.108 8.448 8.32333 9.01267 7.546 10.142C6.76867 11.2713 6.072 13.024 5.456 15.4C5.29467 16.016 5.17 16.5513 5.082 17.006L5.06 17.424C5.33867 18.7733 5.478 19.6533 5.478 20.064C5.478 20.9147 5.17733 21.4867 4.576 21.78C4.29733 21.912 4.026 22.0367 3.762 22.154C3.51267 22.2713 3.24133 22.33 2.948 22.33C2.21467 22.33 1.848 21.6333 1.848 20.24C1.848 18.832 2.23667 16.0893 3.014 12.012C3.29267 10.5453 3.432 9.724 3.432 9.548C3.432 8.36 3.13133 7.766 2.53 7.766C2.32467 7.766 2.134 7.82467 1.958 7.942C1.79667 8.05933 1.628 8.184 1.452 8.316C1.29067 8.448 1.122 8.57267 0.946 8.69C0.77 8.80733 0.564667 8.866 0.33 8.866C0.11 8.866 0 8.668 0 8.272C0 7.46533 0.374 6.80533 1.122 6.292C1.84067 5.764 2.71333 5.5 3.74 5.5C5.06 5.5 5.83733 6.116 6.072 7.348C6.13067 7.71467 6.17467 8.10333 6.204 8.514C7.28933 6.47533 8.66067 5.456 10.318 5.456C12.122 5.456 13.156 6.32133 13.42 8.052C13.508 8.55067 13.5447 9.086 13.53 9.658V9.834C14.4833 8.514 15.6127 7.854 16.918 7.854C18.766 7.854 19.69 8.96867 19.69 11.198C19.69 12.166 19.536 13.3027 19.228 14.608C18.9347 15.8987 18.7147 16.83 18.568 17.402C18.436 17.9593 18.37 18.392 18.37 18.7C18.37 19.2573 18.5607 19.536 18.942 19.536C19.338 19.536 20.2693 18.7733 21.736 17.248C22 16.9547 22.1907 16.808 22.308 16.808ZM35.0938 16.808C35.3578 16.808 35.4898 17.1453 35.4898 17.82C35.4898 18.1867 35.3358 18.634 35.0278 19.162C34.7198 19.6753 34.3164 20.152 33.8178 20.592C33.3338 21.0173 32.7911 21.3693 32.1898 21.648C31.5884 21.9267 31.0018 22.066 30.4298 22.066C29.6524 22.066 29.1318 21.384 28.8678 20.02C28.4864 20.6507 27.9878 21.1713 27.3718 21.582C26.7558 21.978 25.9271 22.176 24.8858 22.176C23.8591 22.176 23.0304 21.8533 22.3998 21.208C21.7691 20.5627 21.4611 19.778 21.4758 18.854C21.4758 16.3607 22.3044 14.3953 23.9618 12.958C24.6658 12.3567 25.3184 11.9607 25.9198 11.77C26.5358 11.5793 27.1811 11.484 27.8558 11.484C28.5304 11.484 29.0804 11.6013 29.5058 11.836C29.7111 11.4107 29.9458 11.198 30.2098 11.198C30.7231 11.198 31.2071 11.4253 31.6618 11.88C32.1311 12.32 32.3658 12.738 32.3658 13.134C32.1604 13.618 31.8598 14.1973 31.4638 14.872C31.3464 15.5467 31.2878 16.4927 31.2878 17.71C31.2878 18.9273 31.4418 19.536 31.7498 19.536C32.1311 19.536 33.0551 18.7733 34.5218 17.248C34.7858 16.9547 34.9764 16.808 35.0938 16.808ZM24.7098 18.128C24.7098 19.2573 25.1278 19.822 25.9638 19.822C26.8584 19.8073 27.5991 19.3307 28.1858 18.392C28.3911 18.0693 28.5598 17.6733 28.6918 17.204C28.6918 15.5613 28.8384 14.1533 29.1318 12.98C27.9438 13.2147 26.9098 13.7867 26.0298 14.696C25.1498 15.6053 24.7098 16.7493 24.7098 18.128ZM41.7165 14.608C41.7165 14.08 41.4011 13.816 40.7705 13.816C40.1545 13.816 39.5458 14.3 38.9445 15.268C38.3431 16.2213 37.9691 17.1967 37.8225 18.194C37.8518 18.5313 37.8811 18.8687 37.9105 19.206C37.9398 19.5433 37.9545 19.8733 37.9545 20.196C37.9545 20.9733 37.6978 21.5013 37.1845 21.78C36.9498 21.912 36.7225 22.0367 36.5025 22.154C36.2971 22.2713 36.0551 22.33 35.7765 22.33C35.4978 22.33 35.2485 22.1467 35.0285 21.78C34.8231 21.3987 34.7205 20.812 34.7205 20.02C34.7205 17.8053 34.8818 15.884 35.2045 14.256C35.7031 11.7333 36.6931 9.03467 38.1745 6.16C38.3798 5.764 38.6805 5.57333 39.0765 5.588C39.4725 5.588 39.7951 5.85933 40.0445 6.402C40.2938 6.94467 40.4111 7.39933 40.3965 7.766C40.3965 8.13267 40.3378 8.492 40.2205 8.844C40.1178 9.18133 39.9785 9.51867 39.8025 9.856C39.6411 10.1787 39.4505 10.516 39.2305 10.868C39.0251 11.2053 38.8198 11.572 38.6145 11.968L38.2845 13.552C38.8565 12.5987 39.6265 11.9607 40.5945 11.638C40.9465 11.5207 41.3351 11.462 41.7605 11.462C42.7578 11.462 43.5131 11.6893 44.0265 12.144C44.5398 12.584 44.7965 13.2147 44.7965 14.036C44.7965 14.8427 44.6865 15.664 44.4665 16.5C44.2611 17.336 44.1071 17.9373 44.0045 18.304C43.9165 18.656 43.8725 18.9493 43.8725 19.184C43.8725 19.4187 43.9531 19.536 44.1145 19.536C44.3345 19.536 44.6058 19.3967 44.9285 19.118C45.2511 18.8393 45.5738 18.5387 45.8965 18.216C46.2191 17.8787 46.5125 17.5707 46.7765 17.292C47.0551 17.0133 47.2458 16.874 47.3485 16.874C47.5538 16.874 47.6565 17.1233 47.6565 17.622C47.6565 18.6487 47.1505 19.6387 46.1385 20.592C44.4371 21.5893 43.3518 22.088 42.8825 22.088C42.8385 22.088 42.8091 22.0807 42.7945 22.066C41.6211 22.066 41.0345 21.1273 41.0345 19.25C41.0345 18.4433 41.1078 17.7027 41.2545 17.028C41.4158 16.3533 41.5331 15.862 41.6065 15.554C41.6798 15.246 41.7165 14.9307 41.7165 14.608ZM58.6066 15.312C58.6066 14.828 58.328 14.586 57.7706 14.586C57.3893 14.586 56.964 14.96 56.4946 15.708C56.0253 16.4413 55.688 17.2333 55.4826 18.084V18.128C55.4826 18.6267 55.556 19.14 55.7026 19.668C55.864 20.196 55.9446 20.5627 55.9446 20.768C55.9446 21.2667 55.3213 21.758 54.0746 22.242C53.884 22.3153 53.7153 22.352 53.5686 22.352C53.202 22.352 52.9453 22.1613 52.7986 21.78C52.6666 21.3987 52.6006 20.8853 52.6006 20.24C52.6006 19.58 52.6153 18.964 52.6446 18.392C52.6886 17.8053 52.7253 17.27 52.7546 16.786C52.7986 16.2873 52.8353 15.8547 52.8646 15.488C52.9086 15.1067 52.9306 14.7987 52.9306 14.564C52.9306 14.0653 52.7033 13.816 52.2486 13.816C51.794 13.816 51.266 14.3513 50.6646 15.422C50.0633 16.478 49.7626 17.3213 49.7626 17.952C49.7626 18.568 49.836 19.14 49.9826 19.668C50.144 20.196 50.2246 20.5627 50.2246 20.768C50.2246 21.2667 49.6013 21.758 48.3546 22.242C48.164 22.3153 47.9953 22.352 47.8486 22.352C47.482 22.352 47.2253 22.1613 47.0786 21.78C46.9466 21.3987 46.8806 20.812 46.8806 20.02C46.8806 17.9373 46.9613 16.434 47.1226 15.51C47.3426 14.146 47.8413 12.8553 48.6186 11.638C48.8826 11.2273 49.1686 11.022 49.4766 11.022C49.9606 11.022 50.408 11.418 50.8186 12.21C50.936 12.4153 51.024 12.606 51.0826 12.782C51.7866 11.902 52.6153 11.462 53.5686 11.462C54.1993 11.462 54.764 11.6747 55.2626 12.1C55.7613 12.5107 56.0106 13.0313 56.0106 13.662V13.904C56.9053 12.7893 57.998 12.232 59.2886 12.232C60.0806 12.232 60.682 12.4373 61.0926 12.848C61.5033 13.2587 61.7086 13.7647 61.7086 14.366C61.7086 14.9673 61.6646 15.51 61.5766 15.994C61.4886 16.478 61.386 16.9327 61.2686 17.358C61.166 17.7833 61.0706 18.1647 60.9826 18.502C60.8946 18.8247 60.8506 19.0813 60.8506 19.272C60.8506 19.448 60.9093 19.536 61.0266 19.536C61.2466 19.536 61.518 19.3967 61.8406 19.118C62.1633 18.8393 62.486 18.5387 62.8086 18.216C63.1313 17.8787 63.4246 17.5707 63.6886 17.292C63.9673 17.0133 64.158 16.874 64.2606 16.874C64.466 16.874 64.5686 17.1233 64.5686 17.622C64.5686 18.6487 64.048 19.646 63.0066 20.614C61.98 21.582 60.88 22.066 59.7066 22.066C58.6506 22.066 58.1226 21.1053 58.1226 19.184C58.1226 18.7 58.2033 18.0327 58.3646 17.182C58.526 16.3313 58.6066 15.708 58.6066 15.312ZM76.9668 16.808C77.2308 16.808 77.3628 17.1453 77.3628 17.82C77.3628 18.1867 77.2088 18.634 76.9008 19.162C76.5928 19.6753 76.1895 20.152 75.6908 20.592C75.2068 21.0173 74.6642 21.3693 74.0628 21.648C73.4615 21.9267 72.8748 22.066 72.3028 22.066C71.5255 22.066 71.0048 21.384 70.7408 20.02C70.3595 20.6507 69.8608 21.1713 69.2448 21.582C68.6288 21.978 67.8002 22.176 66.7588 22.176C65.7322 22.176 64.9035 21.8533 64.2728 21.208C63.6422 20.5627 63.3342 19.778 63.3488 18.854C63.3488 16.3607 64.1775 14.3953 65.8348 12.958C66.5388 12.3567 67.1915 11.9607 67.7928 11.77C68.4088 11.5793 69.0542 11.484 69.7288 11.484C70.4035 11.484 70.9535 11.6013 71.3788 11.836C71.5842 11.4107 71.8188 11.198 72.0828 11.198C72.5962 11.198 73.0802 11.4253 73.5348 11.88C74.0042 12.32 74.2388 12.738 74.2388 13.134C74.0335 13.618 73.7328 14.1973 73.3368 14.872C73.2195 15.5467 73.1608 16.4927 73.1608 17.71C73.1608 18.9273 73.3148 19.536 73.6228 19.536C74.0042 19.536 74.9282 18.7733 76.3948 17.248C76.6588 16.9547 76.8495 16.808 76.9668 16.808ZM66.5828 18.128C66.5828 19.2573 67.0008 19.822 67.8368 19.822C68.7315 19.8073 69.4722 19.3307 70.0588 18.392C70.2642 18.0693 70.4328 17.6733 70.5648 17.204C70.5648 15.5613 70.7115 14.1533 71.0048 12.98C69.8168 13.2147 68.7828 13.7867 67.9028 14.696C67.0228 15.6053 66.5828 16.7493 66.5828 18.128ZM81.1695 22.066C79.0722 22.0807 77.6422 21.296 76.8795 19.712C76.6155 19.1547 76.4835 18.458 76.4835 17.622C76.4835 16.7713 76.5568 15.8693 76.7035 14.916C76.9968 13.0093 77.5615 11.2493 78.3975 9.636C78.8228 8.81467 79.2995 8.11067 79.8275 7.524C80.9862 6.23333 82.2768 5.59533 83.6995 5.61C84.3302 5.61 84.8215 5.786 85.1735 6.138C85.5402 6.47533 85.7235 6.96667 85.7235 7.612C85.7235 8.25733 85.5328 8.91 85.1515 9.57C84.7702 10.2153 84.2788 10.89 83.6775 11.594C83.0908 12.2833 82.4382 13.0093 81.7195 13.772C81.0008 14.5347 80.2968 15.3633 79.6075 16.258V17.138C79.6075 17.9593 79.7835 18.5607 80.1355 18.942C80.4875 19.3233 80.8982 19.514 81.3675 19.514C82.6288 19.514 83.7435 18.8907 84.7115 17.644C85.1075 17.1307 85.4082 16.874 85.6135 16.874C85.8188 16.874 85.9215 17.1233 85.9215 17.622C85.9215 18.1207 85.7822 18.634 85.5035 19.162C85.2395 19.6753 84.8875 20.152 84.4475 20.592C84.0075 21.0173 83.5015 21.3693 82.9295 21.648C82.3575 21.9267 81.7708 22.066 81.1695 22.066ZM82.3575 10.252C82.6655 9.87067 82.9075 9.526 83.0835 9.218C83.2595 8.91 83.3475 8.59467 83.3475 8.272C83.3475 7.93467 83.2302 7.766 82.9955 7.766C82.4822 7.766 81.9102 8.294 81.2795 9.35C80.6635 10.406 80.2015 11.792 79.8935 13.508C80.3922 12.7453 80.8468 12.1073 81.2575 11.594C81.6828 11.0807 82.0495 10.6333 82.3575 10.252ZM87.2609 22.066C85.7943 22.066 85.0609 20.6947 85.0609 17.952C85.0609 16.456 85.2443 15.0993 85.6109 13.882C86.1829 12.0047 86.8283 11.066 87.5469 11.066C87.9723 11.066 88.3096 11.352 88.5589 11.924C88.7643 12.364 88.8596 12.7967 88.8449 13.222C88.8449 13.8087 88.6689 14.8427 88.3169 16.324C87.9796 17.6147 87.8109 18.414 87.8109 18.722C87.8109 19.03 87.8843 19.2427 88.0309 19.36C88.1923 19.4773 88.3756 19.536 88.5809 19.536C88.8009 19.536 89.0723 19.3967 89.3949 19.118C89.7176 18.8393 90.0403 18.5387 90.3629 18.216C90.6856 17.8787 90.9789 17.5707 91.2429 17.292C91.5216 17.0133 91.7123 16.874 91.8149 16.874C92.0203 16.874 92.1229 17.1233 92.1229 17.622C92.1229 18.6487 91.6023 19.6533 90.5609 20.636C89.5343 21.604 88.4343 22.0807 87.2609 22.066ZM88.1629 9.284C87.7669 8.69733 87.5689 8.06667 87.5689 7.392C87.5689 6.71733 87.6716 6.16 87.8769 5.72C88.0969 5.26533 88.3023 4.93533 88.4929 4.73C88.6836 4.51 88.9036 4.4 89.1529 4.4C89.5636 4.4 89.9376 4.708 90.2749 5.324C90.6123 5.92533 90.7809 6.43133 90.7809 6.842C90.7809 7.60467 90.5096 8.206 89.9669 8.646C89.4389 9.07133 88.8376 9.284 88.1629 9.284Z" fill="#F2AB3C"/>
<path d="M104.628 14.46C104.628 14.9 104.494 15.3067 104.228 15.68H100.948C101.054 15.6 101.108 15.4667 101.108 15.28C101.108 15.0933 101.001 14.9467 100.788 14.84C100.574 14.72 100.301 14.66 99.9675 14.66C98.9675 14.66 98.4675 14.9667 98.4675 15.58C98.4675 15.82 98.6542 15.9933 99.0275 16.1C99.4008 16.2067 99.8542 16.2933 100.388 16.36C100.921 16.4267 101.454 16.5267 101.988 16.66C102.521 16.78 102.974 17.0267 103.348 17.4C103.721 17.7733 103.908 18.2733 103.908 18.9C103.908 20.0067 103.461 20.8467 102.568 21.42C101.688 21.9933 100.401 22.28 98.7075 22.28C97.0142 22.28 95.8275 22.0067 95.1475 21.46C94.6142 21.0333 94.3475 20.4467 94.3475 19.7C94.3475 19.4867 94.3675 19.2667 94.4075 19.04L97.7475 19C97.7208 19.1867 97.8275 19.3533 98.0675 19.5C98.3208 19.6333 98.6875 19.7 99.1675 19.7C99.6475 19.7 99.9942 19.6533 100.208 19.56C100.421 19.4533 100.528 19.26 100.528 18.98C100.528 18.7933 100.341 18.6667 99.9675 18.6C99.5942 18.52 99.1342 18.4533 98.5875 18.4C98.0542 18.3467 97.5142 18.26 96.9675 18.14C96.4342 18.02 95.9808 17.7667 95.6075 17.38C95.2342 16.9933 95.0475 16.4867 95.0475 15.86C95.0475 14.6467 95.5142 13.7133 96.4475 13.06C97.3942 12.4067 98.7542 12.08 100.528 12.08C103.261 12.08 104.628 12.8733 104.628 14.46ZM115.984 19.44C116.291 19.44 116.564 19.3733 116.804 19.24L116.704 21.5C116.077 22.02 115.364 22.28 114.564 22.28C112.751 22.28 111.844 21.52 111.844 20C111.844 19.7333 111.871 19.4467 111.924 19.14L112.364 16.68C112.404 16.44 112.424 16.2 112.424 15.96C112.424 15.32 112.084 15 111.404 15C110.737 15 110.217 15.2267 109.844 15.68L108.724 22H105.324L108.004 6.82H111.404L110.264 13.28C110.997 12.4933 111.917 12.1 113.024 12.1C114.371 12.1 115.244 12.4 115.644 13C115.924 13.4 116.064 13.8467 116.064 14.34C116.064 14.8333 116.024 15.2867 115.944 15.7L115.404 18.68C115.391 18.76 115.384 18.8333 115.384 18.9C115.384 19.26 115.584 19.44 115.984 19.44ZM123.967 12.1C125.407 12.1 126.494 12.4133 127.227 13.04C127.8 13.5333 128.087 14.22 128.087 15.1C128.087 15.3933 128.054 15.7133 127.987 16.06L127.567 18.4C127.314 19.8133 126.72 20.8133 125.787 21.4C124.867 21.9867 123.634 22.28 122.087 22.28C120.54 22.28 119.407 21.9867 118.687 21.4C118.154 20.96 117.887 20.3 117.887 19.42C117.887 19.1133 117.92 18.7733 117.987 18.4L118.407 16.06C118.874 13.42 120.727 12.1 123.967 12.1ZM124.507 16.46C124.534 16.3267 124.547 16.16 124.547 15.96C124.547 15.7467 124.46 15.5133 124.287 15.26C124.114 15.0067 123.807 14.88 123.367 14.88C122.94 14.88 122.58 15.0267 122.287 15.32C121.994 15.6 121.807 15.98 121.727 16.46L121.467 17.96C121.44 18.0933 121.427 18.2667 121.427 18.48C121.427 18.68 121.514 18.9 121.687 19.14C121.86 19.38 122.16 19.5 122.587 19.5C123.027 19.5 123.394 19.3533 123.687 19.06C123.98 18.7533 124.167 18.3867 124.247 17.96L124.507 16.46ZM136.216 12.12C137.576 12.12 138.516 12.48 139.036 13.2C139.409 13.6933 139.596 14.32 139.596 15.08C139.596 15.3867 139.563 15.7133 139.496 16.06L139.096 18.4C138.869 19.6667 138.383 20.6333 137.636 21.3C136.889 21.9533 135.956 22.28 134.836 22.28C133.716 22.28 132.936 21.98 132.496 21.38L131.416 27.56H128.016L130.696 12.38H133.776L133.676 12.92C134.303 12.3867 135.149 12.12 136.216 12.12ZM134.136 19.4C134.509 19.4 134.856 19.28 135.176 19.04C135.496 18.8 135.696 18.44 135.776 17.96L136.036 16.46C136.063 16.3267 136.076 16.16 136.076 15.96C136.076 15.76 135.989 15.5467 135.816 15.32C135.643 15.0933 135.343 14.98 134.916 14.98C134.223 14.98 133.769 15.1467 133.556 15.48L132.956 18.84C133.143 19.2133 133.536 19.4 134.136 19.4Z" fill="black"/>
<line x1="129" y1="27" x2="1332" y2="27" stroke="url(#paint0_linear_550_1125)" stroke-width="2" stroke-linecap="round"/>
<defs>
<linearGradient id="paint0_linear_550_1125" x1="1333" y1="27.9906" x2="128" y2="28" gradientUnits="userSpaceOnUse">
<stop stop-color="#F2AB3C" stop-opacity="0"/>
<stop stop-color="#F2AB3C"/>
<stop offset="0.820981" stop-color="#F2AB3C"/>
<stop offset="1"/>
</linearGradient>
</defs>
</svg>
