<svg width="21" height="16" viewBox="0 0 21 16" fill="none" xmlns="http://www.w3.org/2000/svg">
<path d="M20.1135 7.654C20.1965 7.87721 20.1965 8.12279 20.1135 8.346C19.8248 9.13232 19.4632 9.88995 19.0335 10.609C18.8971 10.8364 18.6759 11.0003 18.4186 11.0647C18.1613 11.129 17.889 11.0885 17.6615 10.952C17.4341 10.8155 17.2702 10.5943 17.2059 10.337C17.1416 10.0797 17.1821 9.80742 17.3185 9.58C17.621 9.07463 17.8835 8.54635 18.1035 8C16.6265 4.343 13.5495 2 10.1755 2C6.80155 2 3.72455 4.343 2.24755 8C2.74601 9.38275 3.56462 10.6279 4.63645 11.6337C5.70829 12.6395 7.00293 13.3774 8.41455 13.787C8.54276 13.8177 8.66363 13.8735 8.77021 13.9511C8.87678 14.0287 8.96696 14.1266 9.03555 14.2392C9.10414 14.3518 9.14979 14.4769 9.16987 14.6072C9.18995 14.7375 9.18406 14.8705 9.15255 14.9985C9.12104 15.1265 9.06453 15.247 8.98626 15.3531C8.90799 15.4592 8.80952 15.5488 8.6965 15.6167C8.58349 15.6846 8.45817 15.7295 8.32774 15.7487C8.19732 15.768 8.06437 15.7613 7.93655 15.729C6.14803 15.2202 4.51124 14.2813 3.16905 12.9944C1.82686 11.7075 0.820061 10.1116 0.236546 8.346C0.153573 8.12279 0.153573 7.87721 0.236546 7.654C1.94855 3.005 5.84955 0 10.1755 0C14.5015 0 18.4025 3.005 20.1135 7.654ZM10.1755 12C9.38442 12 8.61106 11.7654 7.95327 11.3259C7.29547 10.8864 6.78278 10.2616 6.48003 9.53073C6.17728 8.79983 6.09806 7.99556 6.2524 7.21964C6.40675 6.44371 6.78771 5.73098 7.34712 5.17157C7.90653 4.61216 8.61926 4.2312 9.39519 4.07686C10.1711 3.92252 10.9754 4.00173 11.7063 4.30448C12.4372 4.60723 13.0619 5.11992 13.5014 5.77772C13.941 6.43552 14.1755 7.20887 14.1755 8C14.1755 9.06087 13.7541 10.0783 13.004 10.8284C12.2538 11.5786 11.2364 12 10.1755 12ZM12.1755 8C12.1755 7.60444 12.0582 7.21776 11.8385 6.88886C11.6187 6.55996 11.3064 6.30362 10.9409 6.15224C10.5755 6.00087 10.1733 5.96126 9.78537 6.03843C9.3974 6.1156 9.04104 6.30608 8.76133 6.58579C8.48163 6.86549 8.29115 7.22186 8.21398 7.60982C8.13681 7.99778 8.17641 8.39991 8.32779 8.76537C8.47916 9.13082 8.73551 9.44318 9.06441 9.66294C9.3933 9.8827 9.77998 10 10.1755 10C10.706 10 11.2147 9.78929 11.5898 9.41421C11.9648 9.03914 12.1755 8.53043 12.1755 8Z" fill="white"/>
<path d="M0.0621879 8.23751C-0.0207853 8.0143 -0.0207853 7.76871 0.0621879 7.54551C0.350928 6.75919 0.712499 6.00156 1.14219 5.28251C1.27864 5.05508 1.49985 4.89118 1.75715 4.82686C2.01445 4.76253 2.28676 4.80305 2.51419 4.93951C2.74161 5.07596 2.90551 5.29717 2.96984 5.55447C3.03416 5.81177 2.99364 6.08408 2.85719 6.31151C2.55469 6.81688 2.29222 7.34516 2.07219 7.89151C3.54919 11.5485 6.62619 13.8915 10.0002 13.8915C13.3742 13.8915 16.4512 11.5485 17.9282 7.89151C17.4297 6.50876 16.6111 5.2636 15.5393 4.25781C14.4674 3.25201 13.1728 2.51414 11.7612 2.10451C11.633 2.07379 11.5121 2.01802 11.4055 1.94041C11.299 1.8628 11.2088 1.76487 11.1402 1.65228C11.0716 1.53969 11.0259 1.41464 11.0059 1.28434C10.9858 1.15404 10.9917 1.02105 11.0232 0.893029C11.0547 0.76501 11.1112 0.644484 11.1895 0.538388C11.2677 0.432293 11.3662 0.342721 11.4792 0.274827C11.5922 0.206933 11.7176 0.162056 11.848 0.14278C11.9784 0.123503 12.1114 0.130208 12.2392 0.162507C14.0277 0.671326 15.6645 1.61018 17.0067 2.89711C18.3489 4.18405 19.3557 5.77995 19.9392 7.54551C20.0222 7.76871 20.0222 8.0143 19.9392 8.23751C18.3547 12.5 14.3262 15.8915 10.0002 15.8915C5.67419 15.8915 1.77319 12.8865 0.0621879 8.23751ZM10.0002 3.89151C10.7913 3.89151 11.5647 4.1261 12.2225 4.56563C12.8803 5.00515 13.393 5.62987 13.6957 6.36077C13.9985 7.09168 14.0777 7.89594 13.9233 8.67187C13.769 9.44779 13.388 10.1605 12.8286 10.7199C12.2692 11.2793 11.5565 11.6603 10.7805 11.8146C10.0046 11.969 9.20036 11.8898 8.46945 11.587C7.73855 11.2843 7.11383 10.7716 6.67431 10.1138C6.23478 9.45599 6.00019 8.68263 6.00019 7.89151C6.00019 6.83064 6.42161 5.81323 7.17176 5.06308C7.92191 4.31293 8.93932 3.89151 10.0002 3.89151ZM8.00019 7.89151C8.00019 8.28707 8.11749 8.67375 8.33725 9.00265C8.55701 9.33155 8.86937 9.58789 9.23482 9.73927C9.60027 9.89064 10.0024 9.93025 10.3904 9.85308C10.7783 9.77591 11.1347 9.58543 11.4144 9.30572C11.6941 9.02602 11.8846 8.66965 11.9618 8.28169C12.0389 7.89373 11.9993 7.49159 11.8479 7.12614C11.6966 6.76069 11.4402 6.44833 11.1113 6.22857C10.7824 6.00881 10.3958 5.89151 10.0002 5.89151C9.46975 5.89151 8.96105 6.10222 8.58597 6.47729C8.2109 6.85237 8.00019 7.36107 8.00019 7.89151Z" fill="white"/>
</svg>
